<svg width="40" height="34" viewBox="0 0 40 34" fill="none" xmlns="http://www.w3.org/2000/svg">
<path d="M40 15.2C40 23.6 31 30.4 20 30.4C18.2 30.4 16.6 30.2 14.9 29.9L5.9 34L6.4 26.3C2.5 23.6 0 19.6 0 15.2C0 6.8 9 0 20 0C31 0 40 6.8 40 15.2Z" fill="#FF9600"/>
<path d="M14.5 15.2002C14.5 16.6002 13.4 17.7002 12 17.7002C10.6 17.7002 9.5 16.6002 9.5 15.2002C9.5 13.8002 10.6 12.7002 12 12.7002C13.4 12.7002 14.5 13.8002 14.5 15.2002ZM20 12.7002C18.6 12.7002 17.5 13.8002 17.5 15.2002C17.5 16.6002 18.6 17.7002 20 17.7002C21.4 17.7002 22.5 16.6002 22.5 15.2002C22.5 13.8002 21.4 12.7002 20 12.7002ZM28 12.7002C26.6 12.7002 25.5 13.8002 25.5 15.2002C25.5 16.6002 26.6 17.7002 28 17.7002C29.4 17.7002 30.5 16.6002 30.5 15.2002C30.5 13.8002 29.4 12.7002 28 12.7002Z" fill="white"/>
</svg>
