<?xml version="1.0" encoding="UTF-8"?>
<svg width="42.081" height="54.481" data-name="Layer 1" version="1.1" viewBox="0 0 42.081 54.481" xmlns="http://www.w3.org/2000/svg" xmlns:cc="http://creativecommons.org/ns#" xmlns:dc="http://purl.org/dc/elements/1.1/" xmlns:rdf="http://www.w3.org/1999/02/22-rdf-syntax-ns#">
 <defs>
  <style>.__1td2xJy__cls-1{fill:#4d4d4f;}.__1td2xJy__cls-2{fill:#a6a8ab;}.__1td2xJy__cls-3{fill:#bbbdbf;}.__1td2xJy__cls-4{fill:#6d6e70;}.__1td2xJy__cls-5{fill:#929497;}.__1td2xJy__cls-6{fill:#fe5000;}.__1td2xJy__cls-7{fill:#404041;}</style>
  <style>.__1td2xJy__cls-7{fill:#404041}</style>
 </defs>
 <title>Artboard 1</title>
 <g transform="translate(0 -.018926)">
  <path d="m20.9 30.4v24.1l-20.9-12.1z" fill="#4d4d4f"/>
  <path d="m20.9 6.3v24.1l-20.9-12.1z" fill="#a6a8ab"/>
  <path d="m20.9 30.4 20.9 12v-24.1l-20.9 12.1" fill="#bbbdbf"/>
  <path d="m20.9 30.4-20.9 12v-24.1l20.9 12.1" fill="#6d6e70"/>
  <path d="m20.9 30.4v24.1l20.9-12.1-20.9-12" fill="#929497"/>
  <path d="m24.5 9.1a8.08 8.08 0 0 1 1.2-4.7 8.7818 8.7818 0 0 1 15.2 8.8 9.49 9.49 0 0 1-3.5 3.4l-12.9 7.4zm13 2.1a4.8 4.8 0 0 0-1.8-6.7 4.93 4.93 0 0 0-6.7 1.8 4.84 4.84 0 0 0-0.7 2.6 5 5 0 0 0 2.5 4.1 4.84 4.84 0 0 0 4.8 0.1 3.9 3.9 0 0 0 1.9-1.9z" fill="#fe5000"/>
 </g>
 <metadata>
  <rdf:RDF>
   <cc:Work rdf:about="">
    <dc:title>Artboard 1</dc:title>
   </cc:Work>
  </rdf:RDF>
 </metadata>
</svg>
