<?xml version="1.0" encoding="UTF-8" standalone="no"?>
<svg
   width="41"
   height="41"
   viewBox="0 0 41 41"
   fill="none"
   version="1.1"
   id="svg6"
   sodipodi:docname="info_circle_svv.svg"
   inkscape:version="1.1.1 (3bf5ae0d25, 2021-09-20)"
   xmlns:inkscape="http://www.inkscape.org/namespaces/inkscape"
   xmlns:sodipodi="http://sodipodi.sourceforge.net/DTD/sodipodi-0.dtd"
   xmlns="http://www.w3.org/2000/svg"
   xmlns:svg="http://www.w3.org/2000/svg">
  <defs
     id="defs10" />
  <sodipodi:namedview
     id="namedview8"
     pagecolor="#ffffff"
     bordercolor="#666666"
     borderopacity="1.0"
     inkscape:pageshadow="2"
     inkscape:pageopacity="0.0"
     inkscape:pagecheckerboard="0"
     showgrid="false"
     inkscape:zoom="15.432606"
     inkscape:cx="36.513601"
     inkscape:cy="16.685452"
     inkscape:window-width="2482"
     inkscape:window-height="1417"
     inkscape:window-x="70"
     inkscape:window-y="-8"
     inkscape:window-maximized="1"
     inkscape:current-layer="svg6" />
  <path
     d="m 20.5,0.5 c -11,0 -20,9 -20,20 0,11 9,20 20,20 11,0 20,-9 20,-20 0,-11 -9,-20 -20,-20 z"
     fill="#ff9600"
     id="path2"
     style="stroke:#000000;stroke-opacity:1;stroke-width:0.9;stroke-miterlimit:4;stroke-dasharray:none" />
  <path
     d="m 23.561283,9.4063002 c 0,-1.54433 -1.103093,-2.647423 -2.757732,-2.647423 -1.764948,0 -2.757732,1.103093 -2.757732,2.537113 0,1.6546398 0.992784,2.6474228 2.757732,2.6474228 1.654639,0 2.757732,-0.992783 2.757732,-2.5371128 z M 18.487056,24.62898 18.928293,14.921764 h 3.971134 l 0.441237,9.707216 v 8.604124 h -4.853608 z"
     fill="#ffffff"
     id="path4"
     style="stroke-width:1.10309" />
</svg>
