<svg width="30" height="40" viewBox="0 0 30 40" fill="none" xmlns="http://www.w3.org/2000/svg">
<path d="M15 40C14.5692 40 14.1775 39.8 13.9034 39.48C12.4935 37.84 0 23.32 0 15.32C0 6.88 6.73629 0 15 0C23.2637 0 30 6.88 30 15.32C30 23.28 17.5065 37.84 16.0966 39.48C15.8225 39.8 15.4308 40 15 40Z" fill="#444F55"/>
<path d="M14.9976 23.2003C10.8462 23.2003 7.47803 19.7603 7.47803 15.5203C7.47803 11.2803 10.8462 7.84033 14.9976 7.84033C19.149 7.84033 22.5172 11.2803 22.5172 15.5203C22.5172 19.7603 19.149 23.2003 14.9976 23.2003ZM14.9976 10.8803C12.4911 10.8803 10.4545 12.9603 10.4545 15.5203C10.4545 18.0803 12.4911 20.1603 14.9976 20.1603C17.5041 20.1603 19.5407 18.0803 19.5407 15.5203C19.5407 12.9603 17.5041 10.8803 14.9976 10.8803Z" fill="white"/>
</svg>
