<svg width="30" height="40" viewBox="0 0 30 40" fill="none" xmlns="http://www.w3.org/2000/svg">
<path d="M15 0C6.75 0 0 6.625 0 14.875C0 23.625 13.25 38.875 13.875 39.5C14.125 39.875 14.625 40 15 40C15.375 40 15.875 39.75 16.125 39.5C16.75 38.875 30 23.625 30 14.875C30 6.625 23.25 0 15 0ZM15 36.125C13.25 34 3 21.375 3 14.875C3 8.375 8.375 3 15 3C21.625 3 27 8.25 27 14.875C27 21.375 16.75 34 15 36.125ZM15 6.875C10.625 6.875 7 10.375 7 14.75C7 19.125 10.625 22.625 15 22.625C19.375 22.625 23 19.125 23 14.75C23 10.5 19.375 6.875 15 6.875ZM15 19.75C12.25 19.75 10 17.5 10 14.875C10 12.125 12.25 10 15 10C17.75 10 20 12.25 20 14.875C20 17.5 17.75 19.75 15 19.75Z" fill="#FF9600"/>
<path d="M15 3.00012C8.375 3.00012 3 8.25012 3 14.8751C3 21.3751 13.25 34.0001 15 36.1251C16.75 34.0001 27 21.3751 27 14.8751C27 8.37512 21.625 3.00012 15 3.00012ZM15 22.7501C10.625 22.7501 7 19.2501 7 14.8751C7 10.5001 10.625 7.00012 15 7.00012C19.375 7.00012 23 10.5001 23 14.8751C23 19.2501 19.375 22.7501 15 22.7501Z" fill="white"/>
</svg>
