<svg width="24" height="24" viewBox="0 0 24 24" fill="none" xmlns="http://www.w3.org/2000/svg">
<path d="M12 0C5.4 0 0 5.4 0 12C0 18.6 5.4 24 12 24C18.6 24 24 18.6 24 12C24 5.4 18.6 0 12 0Z" fill="#158925"/>
<path d="M11.4338 17.1004L6.30078 11.5204L7.79293 10.1404L11.2547 13.8604L16.0296 6.90039L17.7008 8.10039L11.4338 17.1004Z" fill="white"/>
<path d="M12 0C5.4 0 0 5.4 0 12C0 18.6 5.4 24 12 24C18.6 24 24 18.6 24 12C24 5.4 18.6 0 12 0Z" fill="#FF9600"/>
<path d="M13.5 17.7598C13.5 18.5998 12.9 19.1998 12 19.1998C11.04 19.1998 10.5 18.5998 10.5 17.8198C10.5 16.9198 11.04 16.3798 12 16.3798C12.9 16.3798 13.5 16.9198 13.5 17.7598ZM10.74 9.4798L10.98 14.7598H13.14L13.38 9.4798V4.7998H10.74V9.4798Z" fill="white"/>
</svg>
