<?xml version="1.0" encoding="UTF-8" standalone="no"?>
<!-- Generator: Adobe Illustrator 16.0.0, SVG Export Plug-In . SVG Version: 6.00 Build 0)  -->

<svg
   width="436.85428"
   height="436.85358"
   enable-background="new 0 0 416.979 416.979"
   version="1.1"
   viewBox="0 0 436.85427 436.85357"
   xml:space="preserve"
   id="svg1021"
   sodipodi:docname="oransj_infopkt.svg"
   inkscape:version="1.1.1 (3bf5ae0d25, 2021-09-20)"
   xmlns:inkscape="http://www.inkscape.org/namespaces/inkscape"
   xmlns:sodipodi="http://sodipodi.sourceforge.net/DTD/sodipodi-0.dtd"
   xmlns="http://www.w3.org/2000/svg"
   xmlns:svg="http://www.w3.org/2000/svg"><defs
   id="defs1025" /><sodipodi:namedview
   id="namedview1023"
   pagecolor="#ffffff"
   bordercolor="#666666"
   borderopacity="1.0"
   inkscape:pageshadow="2"
   inkscape:pageopacity="0.0"
   inkscape:pagecheckerboard="0"
   showgrid="false"
   inkscape:zoom="2.0936255"
   inkscape:cx="218.28163"
   inkscape:cy="218.52045"
   inkscape:window-width="3362"
   inkscape:window-height="1417"
   inkscape:window-x="70"
   inkscape:window-y="590"
   inkscape:window-maximized="1"
   inkscape:current-layer="svg1021" />
<g
   stroke-width="20"
   id="g1015"
   transform="translate(9.9430416,9.9368438)">
	<path
   d="m 356,61.156 c -81.37,-81.47 -213.38,-81.551 -294.85,-0.182 -81.47,81.371 -81.552,213.38 -0.181,294.85 81.369,81.47 213.38,81.551 294.85,0.181 81.469,-81.369 81.551,-213.38 0.18,-294.85 z"
   fill="#ed9300"
   stroke="#000000"
   stroke-width="20"
   id="path1013" />
</g>















<g
   transform="matrix(1.2385,0,0,1.2385,96.199042,110.12684)"
   fill="#ffffff"
   stroke="#000000"
   stroke-width="4.7"
   id="g1019"><path
     d="M 54.734,9.053 C 39.12,18.067 27.95,32.624 23.284,50.039 c -4.667,17.415 -2.271,35.606 6.743,51.22 12.023,20.823 34.441,33.759 58.508,33.759 7.599,0 15.139,-1.308 22.287,-3.818 l 30.364,52.592 21.65,-12.5 -30.359,-52.583 c 10.255,-8.774 17.638,-20.411 21.207,-33.73 4.666,-17.415 2.27,-35.605 -6.744,-51.22 C 134.918,12.936 112.499,0 88.433,0 76.645,0 64.992,3.13 54.734,9.053 Z m 70.556,37.206 c 5.676,9.831 7.184,21.285 4.246,32.25 -2.938,10.965 -9.971,20.13 -19.802,25.806 -6.462,3.731 -13.793,5.703 -21.199,5.703 -15.163,0 -29.286,-8.146 -36.857,-21.259 C 46.002,78.928 44.494,67.475 47.433,56.509 50.371,45.544 57.404,36.379 67.235,30.702 73.696,26.972 81.027,25 88.433,25 c 15.164,0 29.286,8.146 36.857,21.259 z"
     fill="#ffffff"
     stroke="#000000"
     stroke-width="4.7"
     id="path1017" /></g></svg>
