<?xml version="1.0" encoding="UTF-8" standalone="no"?>
<!-- Generator: Adobe Illustrator 16.0.0, SVG Export Plug-In . SVG Version: 6.00 Build 0)  -->

<svg
   version="1.1"
   id="Capa_1"
   x="0px"
   y="0px"
   width="416.979px"
   height="416.979px"
   viewBox="0 0 416.979 416.979"
   style="enable-background:new 0 0 416.979 416.979;"
   xml:space="preserve"
   sodipodi:docname="oransj_infopkt.svg"
   inkscape:version="1.1.1 (3bf5ae0d25, 2021-09-20)"
   xmlns:inkscape="http://www.inkscape.org/namespaces/inkscape"
   xmlns:sodipodi="http://sodipodi.sourceforge.net/DTD/sodipodi-0.dtd"
   xmlns="http://www.w3.org/2000/svg"
   xmlns:svg="http://www.w3.org/2000/svg"><defs
   id="defs39" /><sodipodi:namedview
   id="namedview37"
   pagecolor="#ffffff"
   bordercolor="#666666"
   borderopacity="1.0"
   inkscape:pageshadow="2"
   inkscape:pageopacity="0.0"
   inkscape:pagecheckerboard="0"
   showgrid="false"
   inkscape:zoom="0.7393623"
   inkscape:cx="566.02832"
   inkscape:cy="330.69038"
   inkscape:window-width="1842"
   inkscape:window-height="1057"
   inkscape:window-x="70"
   inkscape:window-y="-8"
   inkscape:window-maximized="1"
   inkscape:current-layer="Capa_1" />
<g
   id="g4">
	<path
   d="m 356.004,61.156 c -81.37,-81.47 -213.377,-81.551 -294.848,-0.182 -81.47,81.371 -81.552,213.379 -0.181,294.85 81.369,81.47 213.378,81.551 294.849,0.181 81.469,-81.369 81.551,-213.379 0.18,-294.849 z"
   id="path2"
   style="fill:#ed9300;fill-opacity:1;stroke:#000000;stroke-width:4.7;stroke-miterlimit:4;stroke-dasharray:none"
   sodipodi:nodetypes="ccccc" />
</g>
<g
   id="g6">
</g>
<g
   id="g8">
</g>
<g
   id="g10">
</g>
<g
   id="g12">
</g>
<g
   id="g14">
</g>
<g
   id="g16">
</g>
<g
   id="g18">
</g>
<g
   id="g20">
</g>
<g
   id="g22">
</g>
<g
   id="g24">
</g>
<g
   id="g26">
</g>
<g
   id="g28">
</g>
<g
   id="g30">
</g>
<g
   id="g32">
</g>
<g
   id="g34">
</g>
<g
   inkscape:groupmode="layer"
   id="layer1"
   inkscape:label="Layer 1"
   style="display:inline" /><g
   id="g9697"
   transform="matrix(1.2385095,0,0,1.2385095,86.256219,100.19265)"
   style="fill:#ffffff;stroke:#000000;stroke-width:4.7;stroke-miterlimit:4;stroke-dasharray:none"><path
     d="M 54.734,9.053 C 39.12,18.067 27.95,32.624 23.284,50.039 c -4.667,17.415 -2.271,35.606 6.743,51.22 12.023,20.823 34.441,33.759 58.508,33.759 7.599,0 15.139,-1.308 22.287,-3.818 l 30.364,52.592 21.65,-12.5 -30.359,-52.583 c 10.255,-8.774 17.638,-20.411 21.207,-33.73 4.666,-17.415 2.27,-35.605 -6.744,-51.22 C 134.918,12.936 112.499,0 88.433,0 76.645,0 64.992,3.13 54.734,9.053 Z m 70.556,37.206 c 5.676,9.831 7.184,21.285 4.246,32.25 -2.938,10.965 -9.971,20.13 -19.802,25.806 -6.462,3.731 -13.793,5.703 -21.199,5.703 -15.163,0 -29.286,-8.146 -36.857,-21.259 C 46.002,78.928 44.494,67.475 47.433,56.509 50.371,45.544 57.404,36.379 67.235,30.702 73.696,26.972 81.027,25 88.433,25 c 15.164,0 29.286,8.146 36.857,21.259 z"
     id="path9644"
     style="fill:#ffffff;stroke:#000000;stroke-width:4.7;stroke-miterlimit:4;stroke-dasharray:none" /><g
     id="g9646"
     style="fill:#ffffff;stroke:#000000;stroke-width:4.7;stroke-miterlimit:4;stroke-dasharray:none">
</g><g
     id="g9648"
     style="fill:#ffffff;stroke:#000000;stroke-width:4.7;stroke-miterlimit:4;stroke-dasharray:none">
</g><g
     id="g9650"
     style="fill:#ffffff;stroke:#000000;stroke-width:4.7;stroke-miterlimit:4;stroke-dasharray:none">
</g><g
     id="g9652"
     style="fill:#ffffff;stroke:#000000;stroke-width:4.7;stroke-miterlimit:4;stroke-dasharray:none">
</g><g
     id="g9654"
     style="fill:#ffffff;stroke:#000000;stroke-width:4.7;stroke-miterlimit:4;stroke-dasharray:none">
</g><g
     id="g9656"
     style="fill:#ffffff;stroke:#000000;stroke-width:4.7;stroke-miterlimit:4;stroke-dasharray:none">
</g><g
     id="g9658"
     style="fill:#ffffff;stroke:#000000;stroke-width:4.7;stroke-miterlimit:4;stroke-dasharray:none">
</g><g
     id="g9660"
     style="fill:#ffffff;stroke:#000000;stroke-width:4.7;stroke-miterlimit:4;stroke-dasharray:none">
</g><g
     id="g9662"
     style="fill:#ffffff;stroke:#000000;stroke-width:4.7;stroke-miterlimit:4;stroke-dasharray:none">
</g><g
     id="g9664"
     style="fill:#ffffff;stroke:#000000;stroke-width:4.7;stroke-miterlimit:4;stroke-dasharray:none">
</g><g
     id="g9666"
     style="fill:#ffffff;stroke:#000000;stroke-width:4.7;stroke-miterlimit:4;stroke-dasharray:none">
</g><g
     id="g9668"
     style="fill:#ffffff;stroke:#000000;stroke-width:4.7;stroke-miterlimit:4;stroke-dasharray:none">
</g><g
     id="g9670"
     style="fill:#ffffff;stroke:#000000;stroke-width:4.7;stroke-miterlimit:4;stroke-dasharray:none">
</g><g
     id="g9672"
     style="fill:#ffffff;stroke:#000000;stroke-width:4.7;stroke-miterlimit:4;stroke-dasharray:none">
</g><g
     id="g9674"
     style="fill:#ffffff;stroke:#000000;stroke-width:4.7;stroke-miterlimit:4;stroke-dasharray:none">
</g></g></svg>
