<?xml version="1.0" encoding="UTF-8"?>
<!-- Generator: Adobe Illustrator 16.0.0, SVG Export Plug-In . SVG Version: 6.00 Build 0)  -->
<svg width="416.98px" height="416.98px" enable-background="new 0 0 416.979 416.979" version="1.1" viewBox="0 0 416.98 416.98" xml:space="preserve" xmlns="http://www.w3.org/2000/svg">
<g stroke-width="20">
	<path d="m356 61.156c-81.37-81.47-213.38-81.551-294.85-0.182-81.47 81.371-81.552 213.38-0.181 294.85 81.369 81.47 213.38 81.551 294.85 0.181 81.469-81.369 81.551-213.38 0.18-294.85z" fill="#ed9300" stroke="#000" stroke-width="20"/>
</g>















<g transform="matrix(1.2385 0 0 1.2385 86.256 100.19)" fill="#fff" stroke="#000" stroke-width="4.7"><path d="m54.734 9.053c-15.614 9.014-26.784 23.571-31.45 40.986-4.667 17.415-2.271 35.606 6.743 51.22 12.023 20.823 34.441 33.759 58.508 33.759 7.599 0 15.139-1.308 22.287-3.818l30.364 52.592 21.65-12.5-30.359-52.583c10.255-8.774 17.638-20.411 21.207-33.73 4.666-17.415 2.27-35.605-6.744-51.22-12.022-20.823-34.441-33.759-58.507-33.759-11.788 0-23.441 3.13-33.699 9.053zm70.556 37.206c5.676 9.831 7.184 21.285 4.246 32.25s-9.971 20.13-19.802 25.806c-6.462 3.731-13.793 5.703-21.199 5.703-15.163 0-29.286-8.146-36.857-21.259-5.676-9.831-7.184-21.284-4.245-32.25 2.938-10.965 9.971-20.13 19.802-25.807 6.461-3.73 13.792-5.702 21.198-5.702 15.164 0 29.286 8.146 36.857 21.259z" fill="#fff" stroke="#000" stroke-width="4.7"/></g></svg>
