<?xml version="1.0" encoding="UTF-8" standalone="no"?>
<!-- Created with Inkscape (http://www.inkscape.org/) -->

<svg
   width="7.9375mm"
   height="10.583333mm"
   viewBox="0 0 7.9375 10.583333"
   version="1.1"
   id="svg5"
   inkscape:version="1.1.1 (3bf5ae0d25, 2021-09-20)"
   sodipodi:docname="SVV_markor.svg"
   xmlns:inkscape="http://www.inkscape.org/namespaces/inkscape"
   xmlns:sodipodi="http://sodipodi.sourceforge.net/DTD/sodipodi-0.dtd"
   xmlns="http://www.w3.org/2000/svg"
   xmlns:svg="http://www.w3.org/2000/svg">
  <sodipodi:namedview
     id="namedview7"
     pagecolor="#ffffff"
     bordercolor="#666666"
     borderopacity="1.0"
     inkscape:pageshadow="2"
     inkscape:pageopacity="0.0"
     inkscape:pagecheckerboard="0"
     inkscape:document-units="mm"
     showgrid="false"
     inkscape:zoom="2.1997092"
     inkscape:cx="-187.52479"
     inkscape:cy="98.422101"
     inkscape:window-width="2482"
     inkscape:window-height="1417"
     inkscape:window-x="70"
     inkscape:window-y="-8"
     inkscape:window-maximized="1"
     inkscape:current-layer="g836" />
  <defs
     id="defs2" />
  <g
     inkscape:label="Lag 1"
     inkscape:groupmode="layer"
     id="layer1"
     transform="translate(-95.371456,-91.667096)">
    <g
       style="fill:none"
       id="g836"
       transform="matrix(0.26458333,0,0,0.26458333,95.371456,91.667096)">
      <path
         d="M 15,40 C 14.5692,40 14.1775,39.8 13.9034,39.48 12.4935,37.84 0,23.32 0,15.32 0,6.88 6.73629,0 15,0 23.2637,0 30,6.88 30,15.32 30,23.28 17.5065,37.84 16.0966,39.48 15.8225,39.8 15.4308,40 15,40 Z"
         fill="#444f55"
         id="path824"
         style="fill:#ed9300;fill-opacity:1;stroke:#000000;stroke-opacity:1"
         inkscape:export-filename="C:\Users\tobors\markor_svv.png"
         inkscape:export-xdpi="149.39999"
         inkscape:export-ydpi="149.39999" />
      <path
         d="m 14.9976,23.2003 c -4.1514,0 -7.51957,-3.44 -7.51957,-7.68 0,-4.24 3.36817,-7.67997 7.51957,-7.67997 4.1514,0 7.5196,3.43997 7.5196,7.67997 0,4.24 -3.3682,7.68 -7.5196,7.68 z m 0,-12.32 c -2.5065,0 -4.5431,2.08 -4.5431,4.64 0,2.56 2.0366,4.64 4.5431,4.64 2.5065,0 4.5431,-2.08 4.5431,-4.64 0,-2.56 -2.0366,-4.64 -4.5431,-4.64 z"
         fill="#ffffff"
         id="path826"
         inkscape:export-filename="C:\Users\tobors\markor_svv.png"
         inkscape:export-xdpi="149.39999"
         inkscape:export-ydpi="149.39999" />
    </g>
  </g>
</svg>
