<?xml version="1.0" encoding="UTF-8" standalone="no"?>
<svg
   version="1.1"
   id="圖層_1"
   x="0"
   y="0"
   viewBox="0 0 77.721756 55"
   xml:space="preserve"
   sodipodi:docname="veg_ikon_hvit.svg"
   width="77.721756"
   height="55"
   inkscape:version="1.1.2 (b8e25be833, 2022-02-05)"
   xmlns:inkscape="http://www.inkscape.org/namespaces/inkscape"
   xmlns:sodipodi="http://sodipodi.sourceforge.net/DTD/sodipodi-0.dtd"
   xmlns="http://www.w3.org/2000/svg"
   xmlns:svg="http://www.w3.org/2000/svg"
   xmlns:d="https://loading.io/stock/"><defs
     id="defs860" /><sodipodi:namedview
     id="namedview858"
     pagecolor="#ffffff"
     bordercolor="#666666"
     borderopacity="1.0"
     inkscape:pageshadow="2"
     inkscape:pageopacity="0.0"
     inkscape:pagecheckerboard="0"
     showgrid="false"
     inkscape:zoom="12.08"
     inkscape:cx="38.865894"
     inkscape:cy="27.483444"
     inkscape:window-width="3378"
     inkscape:window-height="1417"
     inkscape:window-x="54"
     inkscape:window-y="-8"
     inkscape:window-maximized="1"
     inkscape:current-layer="圖層_1" /><path
     id="path6323"
     d="m 20.182716,0 c -1.2,0 -2.301172,0.800391 -2.701172,1.900391 L 0.18271586,51.199219 c -0.7,1.9 0.699219,3.800781 2.69921904,3.800781 H 28.682716 l 0.59961,-7.599609 H 48.481544 L 49.081154,55 h 25.800781 c 1.9,0 3.299219,-1.900781 2.699219,-3.800781 L 60.282326,1.900391 C 59.882326,0.800391 58.781154,0 57.581154,0 Z m 12.59961,3.400391 h 12.199218 l 0.800782,9.199218 H 31.981544 Z m -1.201172,14.699218 h 14.601562 l 0.699219,9.201172 h -16 z m -1.09961,14.701172 h 16.800782 l 0.798828,9.09961 H 29.682716 Z"
     style="fill:#ffffff" /><g
     id="g853"
     transform="translate(-11.118065,-22.5)" /><metadata
     id="metadata855">
<d:name>road</d:name>
<d:tags>highway,milestone,move,portal,roadmap,plan,road,web application</d:tags>
<d:license>by</d:license>
<d:slug>dzl5aa</d:slug>
</metadata></svg>
