<?xml version="1.0" encoding="UTF-8"?>
<svg width="54.725" height="54.725" version="1.1" viewBox="0 0 54.725 54.725" xml:space="preserve" xmlns="http://www.w3.org/2000/svg" xmlns:d="https://loading.io/stock/"><metadata>
<d:name>road</d:name>
<d:tags>highway,milestone,move,portal,roadmap,plan,road,web application</d:tags>
<d:license>by</d:license>
<d:slug>dzl5aa</d:slug>
</metadata><g transform="matrix(1.338 0 0 1.338 -40.606 -13.026)"><path d="m50.798 10.185c-11 0-20 9-20 20s9 20 20 20 20-9 20-20-9-20-20-20z" fill="#ff9600" stroke="#000" stroke-width=".9"/></g><path d="m18.411 11.012c-0.62692 0-1.2022 0.41815-1.4112 0.99283l-9.0375 25.756c-0.3657 0.99263 0.3653 1.9857 1.4102 1.9857h13.479l0.31326-3.9703h10.03l0.31326 3.9703h13.479c0.99263 0 1.7236-0.99304 1.4102-1.9857l-9.0375-25.756c-0.20897-0.57468-0.78427-0.99283-1.4112-0.99283zm6.5825 1.7765h6.3733l0.41836 4.806h-7.21zm-0.62754 7.6794h7.6284l0.3653 4.807h-8.359zm-0.57448 7.6804h8.7773l0.41734 4.754h-9.612z" fill="#fff" stroke-width=".52244"/></svg>
